<?xml version="1.0" standalone="no"?>
<!DOCTYPE svg PUBLIC "-//W3C//DTD SVG 20010904//EN"
 "http://www.w3.org/TR/2001/REC-SVG-20010904/DTD/svg10.dtd">
<svg version="1.0" xmlns="http://www.w3.org/2000/svg"
 width="225.000000pt" height="225.000000pt" viewBox="0 0 225.000000 225.000000"
 preserveAspectRatio="xMidYMid meet">

<g transform="translate(0.000000,225.000000) scale(0.100000,-0.100000)"
fill="#000000" stroke="none">
<path d="M794 1638 c-53 -95 -103 -184 -111 -197 -19 -29 -21 -24 105 -248 53
-95 100 -169 103 -165 4 4 51 86 105 182 53 96 104 183 112 193 14 15 37 17
224 17 114 0 208 3 208 8 0 4 -11 25 -23 47 -86 146 -137 237 -162 283 l-28
52 -218 0 -218 0 -97 -172z"/>
<path d="M1225 995 l-109 -195 -213 0 c-137 0 -213 -4 -213 -10 0 -6 17 -41
38 -78 20 -37 66 -120 102 -185 l65 -117 224 3 224 2 104 185 c58 102 107 191
110 197 3 7 -33 79 -80 160 -46 82 -94 167 -106 191 -12 23 -25 42 -29 42 -4
0 -56 -88 -117 -195z"/>
</g>
</svg>
